HIERARCHY
ROOT Hips
{
 OFFSET 0.000000 0.000000 0.000000
 CHANNELS 6 Xposition Yposition Zposition Yrotation Xrotation Zrotation
 JOINT Chest
 {
  OFFSET 0.000000 9.585900 0.002600
  CHANNELS 3 Yrotation Xrotation Zrotation
  JOINT Chest2
  {
   OFFSET 0.000000 9.601200 -0.005300
   CHANNELS 3 Yrotation Xrotation Zrotation
   JOINT Chest3
   {
    OFFSET 0.000000 9.561800 0.000000
    CHANNELS 3 Yrotation Xrotation Zrotation
    JOINT Chest4
    {
     OFFSET 0.000000 9.552100 0.000000
     CHANNELS 3 Yrotation Xrotation Zrotation
     JOINT Neck
     {
      OFFSET 0.000000 14.453000 0.000000
      CHANNELS 3 Yrotation Xrotation Zrotation
      JOINT Head
      {
       OFFSET 0.000000 8.936500 -0.011300
       CHANNELS 3 Yrotation Xrotation Zrotation
       End Site
       {
        OFFSET 0.000000 17.073600 -0.006000
       }
      }
     }
     JOINT RightCollar
     {
      OFFSET -2.921100 9.558500 0.000000
      CHANNELS 3 Yrotation Xrotation Zrotation
      JOINT RightShoulder
      {
       OFFSET -13.519700 0.000000 0.000000
       CHANNELS 3 Yrotation Xrotation Zrotation
       JOINT RightElbow
       {
        OFFSET 0.000000 -29.696600 0.000000
        CHANNELS 3 Yrotation Xrotation Zrotation
        JOINT RightWrist
        {
         OFFSET 0.000000 -24.004700 0.000000
         CHANNELS 3 Yrotation Xrotation Zrotation
         End Site
         {
          OFFSET 0.000000 -17.728500 0.000000
         }
        }
       }
      }
     }
     JOINT LeftCollar
     {
      OFFSET 2.921100 9.558500 0.000000
      CHANNELS 3 Yrotation Xrotation Zrotation
      JOINT LeftShoulder
      {
       OFFSET 13.519700 0.000000 0.000000
       CHANNELS 3 Yrotation Xrotation Zrotation
       JOINT LeftElbow
       {
        OFFSET 0.000000 -29.696600 0.000000
        CHANNELS 3 Yrotation Xrotation Zrotation
        JOINT LeftWrist
        {
         OFFSET 0.000000 -24.004700 0.000000
         CHANNELS 3 Yrotation Xrotation Zrotation
         End Site
         {
          OFFSET 0.000000 -17.728500 0.000000
         }
        }
       }
      }
     }
    }
   }
  }
 }
 JOINT RightHip
 {
  OFFSET -7.771700 -0.012900 -0.001300
  CHANNELS 3 Yrotation Xrotation Zrotation
  JOINT RightKnee
  {
   OFFSET 0.000000 -40.869800 0.001200
   CHANNELS 3 Yrotation Xrotation Zrotation
   JOINT RightAnkle
   {
    OFFSET 0.000000 -39.717900 0.002100
    CHANNELS 3 Yrotation Xrotation Zrotation
    JOINT RightToe
    {
     OFFSET 0.000000 -4.965400 11.033500
     CHANNELS 3 Yrotation Xrotation Zrotation
     End Site
     {
      OFFSET 0.000000 -1.423100 5.872300
     }
    }
   }
  }
 }
 JOINT LeftHip
 {
  OFFSET 7.771700 -0.012900 -0.001300
  CHANNELS 3 Yrotation Xrotation Zrotation
  JOINT LeftKnee
  {
   OFFSET 0.000000 -40.869800 0.001200
   CHANNELS 3 Yrotation Xrotation Zrotation
   JOINT LeftAnkle
   {
    OFFSET 0.000000 -39.717900 0.002100
    CHANNELS 3 Yrotation Xrotation Zrotation
    JOINT LeftToe
    {
     OFFSET 0.000000 -4.965400 11.033500
     CHANNELS 3 Yrotation Xrotation Zrotation
     End Site
     {
      OFFSET 0.000000 -1.423100 5.872300
     }
    }
   }
  }
 }
}
MOTION
Frames: 9
Frame Time: 0.008333
0.000000 85.388000 0.000000 0.000000 -5.767877 0.000000 0.000000 11.653817 0.000000 0.000000 -5.885947 0.000000 0.000000 -0.000000 0.000000 0.000000 -0.000000 0.000000 0.000000 12.528835 0.000000 0.000000 0.711642 0.000000 0.000000 -0.000000 0.000000 0.000000 0.000000 -90.000000 0.000000 -2.309062 0.000000 0.000000 2.309062 0.000000 0.000000 -0.000000 0.000000 0.000000 -0.000000 90.000000 0.000000 -2.309062 0.000000 0.000000 2.309062 0.000000 0.000000 8.520406 0.000000 0.000000 1.905762 0.000000 -0.000000 -4.658285 0.000000 0.000000 -0.000000 0.000000 0.000000 8.520406 0.000000 0.000000 1.905762 0.000000 -0.000000 -4.658285 0.000000 0.000000 -0.000000 0.000000
-20.090304 51.807541 29.773678 178.492761 -31.266350 0.525801 -0.541914 14.706969 -0.322926 -0.062979 1.319504 0.022942 -0.103406 2.252878 0.038339 -0.603300 13.229945 0.168380 -2.488954 20.266193 -2.209536 -2.150951 -4.197658 -1.789104 10.737152 11.296871 12.313448 64.102714 -4.754346 -47.501921 173.226768 -28.902552 168.262996 -6.307984 -13.383245 1.922080 -11.084017 9.097768 -17.841684 -65.246499 -2.215851 48.471904 -164.399943 -35.499626 -168.081951 21.918396 -9.520346 -28.420031 -9.049109 -51.575158 2.040464 -59.754767 81.998717 -68.990154 -4.304390 -6.059496 7.937719 0.315299 -0.705099 0.126458 8.623690 -49.211594 -6.895407 37.747660 84.229705 44.428625 -2.298319 -12.166655 0.038511 0.119020 0.518379 0.044273
-20.093157 51.804950 29.766246 178.486010 -31.242521 0.521042 -0.529387 14.723454 -0.313388 -0.062589 1.321329 0.023593 -0.104217 2.244367 0.039130 -0.601596 13.223049 0.171856 -2.483030 20.305698 -2.212853 -2.148869 -4.182486 -1.794451 10.765200 11.304572 12.327620 64.103374 -4.752985 -47.528942 173.265065 -28.913451 168.217282 -6.263551 -13.352557 1.766839 -11.094782 9.091893 -17.841414 -65.254027 -2.205752 48.440605 -164.346808 -35.518605 -168.098643 21.909822 -9.517177 -28.392137 -9.073969 -51.599585 2.060990 -59.785039 82.001682 -69.024950 -4.291923 -6.046712 7.938573 0.314098 -0.710819 0.123598 8.632214 -49.239903 -6.899252 37.890175 84.243841 44.574652 -2.295274 -12.181820 0.043092 0.116632 0.514820 0.042845
-20.096500 51.801989 29.757688 178.483181 -31.214571 0.514950 -0.522632 14.715705 -0.304700 -0.058411 1.353656 0.024351 -0.109410 2.202906 0.039003 -0.597874 13.237854 0.176029 -2.482733 20.312750 -2.215920 -2.137703 -4.135702 -1.802197 10.834234 11.343643 12.355167 64.132826 -4.755584 -47.556446 173.199848 -28.956943 168.257596 -6.246518 -13.313245 1.598219 -11.111003 9.098502 -17.846767 -65.254878 -2.209133 48.454450 -164.348815 -35.545374 -168.070000 21.901319 -9.511739 -28.359593 -9.091217 -51.626476 2.070685 -59.814574 82.004933 -69.052551 -4.275225 -6.038606 7.942081 0.298484 -0.712620 0.118176 8.637197 -49.273029 -6.902709 38.020525 84.260042 44.707314 -2.294632 -12.196256 0.045519 0.116010 0.510419 0.044338
-20.099896 51.800909 29.744884 178.463477 -31.207744 0.518562 -0.501448 14.729682 -0.296963 -0.056011 1.364690 0.024527 -0.108785 2.217010 0.040015 -0.595038 13.245425 0.180385 -2.485574 20.292313 -2.217648 -2.123412 -4.092435 -1.807673 10.862477 11.324745 12.356593 64.160042 -4.758777 -47.556910 173.212293 -28.984580 168.235819 -6.193510 -13.280336 1.456574 -11.129964 9.077796 -17.845241 -65.253769 -2.214705 48.468202 -164.376259 -35.567816 -168.031313 21.894345 -9.502510 -28.317081 -9.078676 -51.631524 2.054306 -59.840680 82.016060 -69.065881 -4.239460 -6.039357 7.947002 0.271747 -0.710448 0.106203 8.650282 -49.283599 -6.895843 38.150009 84.291752 44.829652 -2.281358 -12.221946 0.057049 0.110490 0.505148 0.043023
-20.103117 51.798799 29.733211 178.465449 -31.188434 0.512013 -0.494667 14.750626 -0.289357 -0.052244 1.364410 0.025335 -0.099564 2.264708 0.041148 -0.601140 13.209908 0.184839 -2.481815 20.304483 -2.217288 -2.118919 -4.086379 -1.806366 10.887934 11.307834 12.358514 64.152191 -4.768617 -47.580432 173.266141 -28.993584 168.184276 -6.145367 -13.255072 1.320852 -11.160029 9.055092 -17.845512 -65.242773 -2.217953 48.464161 -164.406558 -35.582228 -168.007536 21.891462 -9.486307 -28.263313 -9.090668 -51.649717 2.062597 -59.938996 82.014884 -69.158607 -4.242311 -6.034875 7.941585 0.277974 -0.709941 0.111856 8.647647 -49.305975 -6.893321 38.235144 84.312694 44.909592 -2.277079 -12.241465 0.067912 0.109715 0.502948 0.042073
-20.106499 51.798820 29.717855 178.496490 -31.193297 0.496111 -0.497326 14.827588 -0.280917 -0.060344 1.339075 0.025180 -0.101480 2.257554 0.041678 -0.601075 13.223689 0.185583 -2.477412 20.312477 -2.214925 -2.119817 -4.098902 -1.801465 10.914644 11.290106 12.360906 64.142917 -4.780212 -47.604705 173.272930 -29.002926 168.175356 -6.134290 -13.232226 1.171884 -11.179971 9.030730 -17.842341 -65.262363 -2.209642 48.425195 -164.390243 -35.597131 -168.027052 21.890176 -9.464153 -28.197233 -9.115695 -51.645566 2.044733 -60.107422 82.038697 -69.304431 -4.262986 -6.053158 7.915654 0.297941 -0.706439 0.124924 8.623770 -49.304049 -6.897460 38.308524 84.335067 44.981657 -2.266983 -12.256573 0.073070 0.110936 0.499576 0.041663
-20.109500 51.795688 29.707811 178.503043 -31.161394 0.495038 -0.493419 14.820259 -0.278093 -0.063169 1.331906 0.024409 -0.094457 2.276696 0.043777 -0.595010 13.234125 0.186606 -2.474983 20.319791 -2.210807 -2.118113 -4.097173 -1.798300 10.925459 11.270012 12.360964 64.155139 -4.781599 -47.600453 173.253034 -29.014624 168.189418 -6.109545 -13.211720 1.028967 -11.198741 9.012185 -17.844689 -65.286934 -2.200301 48.425421 -164.394784 -35.624785 -168.007936 21.886532 -9.439958 -28.118554 -9.128862 -51.675630 2.036508 -60.109066 82.055773 -69.300019 -4.255485 -6.058298 7.910331 0.290313 -0.698813 0.124234 8.629047 -49.337220 -6.910661 38.370020 84.352330 45.041340 -2.265563 -12.276307 0.076260 0.110522 0.502604 0.044218
-20.111949 51.790949 29.700635 178.520986 -31.111547 0.489962 -0.506351 14.778364 -0.280351 -0.060129 1.340900 0.025410 -0.086378 2.294068 0.045476 -0.593261 13.244669 0.190340 -2.449444 20.368995 -2.207358 -2.131286 -4.127695 -1.790462 10.918316 11.234885 12.352443 64.185530 -4.774146 -47.574399 173.249366 -29.031878 168.186430 -6.054172 -13.197319 0.899590 -11.212653 8.994623 -17.849441 -65.305528 -2.195827 48.439471 -164.395752 -35.658047 -167.983197 21.881570 -9.418470 -28.037887 -9.149114 -51.726068 2.036935 -60.151159 82.064603 -69.337161 -4.259942 -6.057391 7.904010 0.296277 -0.694569 0.128065 8.629570 -49.388917 -6.930549 38.435687 84.360582 45.105934 -2.270144 -12.293766 0.077655 0.108875 0.507069 0.046996
